# xmcd CD database file
#
# Track frame offsets:
#	150
#	14300
#	24100
#	38416
#	50351
#	60739
#	77080
#	91507
#	103122
#	115529
#	129917
#	142108
#	156045
#	173324
#	185882
#	196467
#	213426
#
# Disc length: 2980 seconds
#
# Revision: 0
# Processed by: cddbd v1.5.2PL0 Copyright (c) Steve Scherf et al.
# Submitted via: CDex 1.70beta2
#
DISCID=ce0ba211
DTITLE=Various Artist - Plays ”The Beatles” Lounge Cover (Disc1)
DYEAR=2010
DGENRE=Jazz
TTITLE0=Day Tripper
TTITLE1=Help！
TTITLE2=Yellow Submarine
TTITLE3=Paperback Writer
TTITLE4=I Feel Fine
TTITLE5=Ticket To Ride
TTITLE6=We Can Work It Out
TTITLE7=Eight Days A Week
TTITLE8=I Want To Hold Your Hand
TTITLE9=Love Me Do
TTITLE10=She Loves You
TTITLE11=A Hard Day’s Night
TTITLE12=Eleanor Rigby
TTITLE13=Can’t Buy Me Love
TTITLE14=From Me To You
TTITLE15=In My Life
TTITLE16=Yesterday
EXTD=YEAR: 2010
EXTT0=
EXTT1=
EXTT2=
EXTT3=
EXTT4=
EXTT5=
EXTT6=
EXTT7=
EXTT8=
EXTT9=
EXTT10=
EXTT11=
EXTT12=
EXTT13=
EXTT14=
EXTT15=
EXTT16=
PLAYORDER=
